HIERARCHY
ROOT Hips
{
	OFFSET 0.00000 0.00000 0.00000
	CHANNELS 6 Xposition Yposition Zposition Zrotation Yrotation Xrotation 
	JOINT LHipJoint
	{
		OFFSET 0 0 0
		CHANNELS 3 Zrotation Yrotation Xrotation
		JOINT LeftHip
		{
			OFFSET 1.36337 -1.57426 1.11036
			CHANNELS 3 Zrotation Yrotation Xrotation
			JOINT LeftKnee
			{
				OFFSET 2.38468 -6.55187 0.00000
				CHANNELS 3 Zrotation Yrotation Xrotation
				JOINT LeftAnkle
				{
					OFFSET 2.37166 -6.51609 0.00000
					CHANNELS 3 Zrotation Yrotation Xrotation
					JOINT LeftToe
					{
						OFFSET 0.29078 -0.79891 2.01393
						CHANNELS 3 Zrotation Yrotation Xrotation
						End Site
						{
							OFFSET 0.00000 -0.00000 1.07924
						}
					}
				}
			}
		}
	}
	JOINT RHipJoint
	{
		OFFSET 0 0 0
		CHANNELS 3 Zrotation Yrotation Xrotation
		JOINT RightHip
		{
			OFFSET -1.36349 -1.57426 1.11036
			CHANNELS 3 Zrotation Yrotation Xrotation
			JOINT RightKnee
			{
				OFFSET -2.29562 -6.30717 0.00000
				CHANNELS 3 Zrotation Yrotation Xrotation
				JOINT RightAnkle
				{
					OFFSET -2.40985 -6.62100 0.00000
					CHANNELS 3 Zrotation Yrotation Xrotation
					JOINT RightToe
					{
						OFFSET -0.23197 -0.63733 1.92232
						CHANNELS 3 Zrotation Yrotation Xrotation
						End Site
						{
							OFFSET -0.00000 -0.00000 1.01562
						}
					}
				}
			}
		}
	}
	JOINT lowerback
	{
		OFFSET 0 0 0
		CHANNELS 3 Zrotation Yrotation Xrotation
		JOINT Chest
		{
			OFFSET -0.08565 2.03602 -0.24562
			CHANNELS 3 Zrotation Yrotation Xrotation
			JOINT Chest2
			{
				OFFSET -0.00036 2.05693 0.00216
				CHANNELS 3 Zrotation Yrotation Xrotation
				JOINT lowerneck
				{
					OFFSET 0 0 0
					CHANNELS 3 Zrotation Yrotation Xrotation
					JOINT Neck
					{
						OFFSET -0.03664 1.69515 0.31789
						CHANNELS 3 Zrotation Yrotation Xrotation
						JOINT Head
						{
							OFFSET 0.00932 1.70181 -0.46013
							CHANNELS 3 Zrotation Yrotation Xrotation
							End Site
							{
								OFFSET 0.01243 1.77620 -0.19377
							}
						}
					}
				}
				JOINT LeftCollar
				{
					OFFSET 0 0 0
					CHANNELS 3 Zrotation Yrotation Xrotation
					JOINT LeftShoulder
					{
						OFFSET 3.74344 0.81315 -0.36647
CHANNELS 3 Zrotation Xrotation Yrotation
						JOINT LeftElbow
						{
OFFSET 0 -4.971850 -0.000000
CHANNELS 3 Zrotation Xrotation Yrotation
							JOINT LeftWrist
							{
OFFSET 0 -3.358110 0.000000
CHANNELS 3 Zrotation Xrotation Yrotation
								JOINT lhand
								{
									OFFSET 0 0 0
CHANNELS 3 Zrotation Xrotation Yrotation
									JOINT LFingers
									{
OFFSET 0 -0.622780 0.000000
CHANNELS 3 Zrotation Xrotation Yrotation
										End Site
										{
OFFSET 0 -0.502100 0.000000
										}
									}
								}
								JOINT LThumb
								{
OFFSET 0 0.000000 0.000000
CHANNELS 3 Zrotation Xrotation Yrotation
									End Site
									{
OFFSET 0 -0.509760 0.509760
									}
								}
							}
						}
					}
				}
				JOINT RightCollar
				{
					OFFSET 0 0 0
					CHANNELS 3 Zrotation Yrotation Xrotation
					JOINT RightShoulder
					{
						OFFSET -3.75385 0.50666 -0.06525
CHANNELS 3 Zrotation Xrotation Yrotation
						JOINT RightElbow
						{
OFFSET 0 -4.964930 -0.000000
CHANNELS 3 Zrotation Xrotation Yrotation
							JOINT RightWrist
							{
OFFSET 0 -3.349290 0.000000
CHANNELS 3 Zrotation Xrotation Yrotation
								JOINT rhand
								{
									OFFSET 0 0 0
CHANNELS 3 Zrotation Xrotation Yrotation
									JOINT RFingers
									{
OFFSET 0 -0.638040 0.000000
CHANNELS 3 Zrotation Xrotation Yrotation
										End Site
										{
OFFSET 0 -0.514410 0.000000
										}
									}
								}
								JOINT RThumb
								{
OFFSET 0 0.000000 0.000000
CHANNELS 3 Zrotation Xrotation Yrotation
									End Site
									{
OFFSET 0 -0.522260 0.522260
									}
								}
							}
						}
					}
				}
			}
		}
	}
}
MOTION
Frames: 6
Frame Time: 0.008333333333333333
-12.442352 15.057762 0.786018 116.379503 81.730395 130.277741 0.000000 0.000000 0.000000 -14.675815 -0.729506 -0.916988 4.140895 12.317222 36.906013 1.499552 -0.063869 -23.096282 2.394135 -9.640515 -27.821987 0.000000 0.000000 0.000000 -0.264632 -4.402554 -56.752776 -21.334792 -19.940040 93.909296 -0.482387 0.600497 -12.923197 -0.001602 0.041435 -0.113787 -12.508443 0.529154 15.171619 -1.869135 -1.093359 3.474277 5.253119 -0.309643 -4.550854 -6.487251 -1.953159 -27.845967 1.962299 -0.390104 26.157006 1.795086 -0.504219 13.511567 0.000000 0.000000 0.000000 25.582306 -6.080416 -41.528829 79.584856 -59.568194 50.994478 32.929443 -32.682406 15.229732 0.000000 0.000000 0.000000 -7.125000 0.000000 0.000000 3.538390 12.036184 2.725401 0.000000 0.000000 0.000000 -14.722347 18.490186 35.655977 -36.282182 -45.705679 -15.724364 -11.188163 -17.029316 25.500957 0.000000 0.000000 0.000000 7.125000 0.000000 0.000000 19.645445 54.814157 -4.875583
-12.046722 15.138054 0.825258 116.621280 82.187470 130.454618 0.000000 0.000000 0.000000 -14.220508 -0.411280 2.175627 3.501117 11.420016 33.763828 1.088733 1.802776 -20.227418 2.425227 -9.700391 -28.011956 0.000000 0.000000 0.000000 0.351195 -3.465437 -58.067594 -20.133838 -19.969080 90.390351 -0.521185 0.231085 -13.563418 -0.006505 0.210620 -0.578947 -11.742398 -0.066133 14.737600 -1.737503 -1.720150 3.344147 5.068539 -0.638739 -4.369184 -5.997224 -1.378650 -28.317722 1.448924 0.436021 26.766719 1.680020 -0.182351 13.822996 0.000000 0.000000 0.000000 25.992558 -6.127531 -41.794142 82.041001 -59.743986 53.113837 32.743045 -33.351026 16.129652 0.000000 0.000000 0.000000 -7.125000 0.000000 0.000000 3.294198 11.032407 2.602684 0.000000 0.000000 0.000000 -15.420503 19.277815 35.212884 -35.998118 -45.511084 -15.521418 -11.078414 -17.477936 25.235047 0.000000 0.000000 0.000000 7.125000 0.000000 0.000000 19.601955 54.542641 -4.733230
-11.653804 15.222624 0.871697 118.088467 82.401451 132.132696 0.000000 0.000000 0.000000 -13.788713 -0.388434 4.965945 2.869028 10.446826 30.469980 0.640589 3.868927 -16.838029 2.385711 -9.626952 -27.776993 0.000000 0.000000 0.000000 0.890992 -2.883462 -59.483123 -18.822263 -19.946234 86.552818 -0.573376 -0.459159 -14.480529 -0.017742 0.766500 -2.106845 -11.000497 -0.748388 14.158767 -1.590305 -2.458217 3.144812 4.923364 -1.021965 -4.171340 -5.548707 -0.827350 -28.827270 0.931974 1.255835 27.382299 1.570633 0.128181 14.157493 0.000000 0.000000 0.000000 26.380631 -6.168218 -42.098603 84.346535 -59.868711 55.106496 32.613208 -33.950043 17.204187 0.000000 0.000000 0.000000 -7.125000 0.000000 0.000000 3.062697 9.821645 2.495907 0.000000 0.000000 0.000000 -16.129972 19.981958 34.755207 -35.711764 -45.313240 -15.317396 -11.017489 -18.126694 24.908112 0.000000 0.000000 0.000000 7.125000 0.000000 0.000000 19.476592 54.223002 -4.546516
-11.244508 15.310069 0.917954 118.294967 82.738661 132.435082 0.000000 0.000000 0.000000 -13.387780 -0.177758 7.737629 2.337278 9.484773 27.363706 0.235972 6.422975 -13.281265 2.068946 -8.957124 -25.696381 0.000000 0.000000 0.000000 1.411974 -2.243547 -60.308742 -17.373010 -19.787201 82.279868 -0.624511 -1.052886 -15.343341 -0.029634 1.093571 -3.006438 -10.240689 -1.296859 13.472571 -1.492566 -3.019955 2.949226 4.668462 -1.320138 -3.954608 -4.990462 -0.277323 -28.735771 0.405052 1.989359 27.750035 1.414808 0.419970 14.282944 0.000000 0.000000 0.000000 26.855539 -5.971325 -42.627361 86.492881 -59.940154 56.963550 32.525880 -34.254559 18.069565 0.000000 0.000000 0.000000 -7.125000 0.000000 0.000000 2.884294 8.848645 2.407036 0.000000 0.000000 0.000000 -16.776443 20.929213 34.335744 -35.622847 -45.251801 -15.254037 -10.988010 -18.991341 23.975690 0.000000 0.000000 0.000000 7.125000 0.000000 0.000000 19.015603 53.333361 -4.025888
-10.827624 15.398846 0.964126 117.917386 83.132964 132.100105 0.000000 0.000000 0.000000 -13.001145 0.119940 10.500681 1.852015 8.527879 24.344337 -0.148479 9.203068 -9.646955 1.623731 -8.010988 -22.760676 0.000000 0.000000 0.000000 1.924238 -1.576789 -60.861054 -15.859970 -19.565072 77.805187 -0.675157 -1.601896 -16.180996 -0.041830 1.314635 -3.614934 -9.472586 -1.783347 12.736635 -1.417743 -3.500000 2.755376 4.362723 -1.578907 -3.729124 -4.381380 0.272113 -28.365806 -0.126491 2.682904 28.002945 1.237467 0.703076 14.311542 0.000000 0.000000 0.000000 27.370679 -5.664361 -43.260035 88.565476 -59.986912 58.757778 32.458245 -34.422634 18.838041 0.000000 0.000000 0.000000 -7.125000 0.000000 0.000000 2.730492 7.985800 2.326460 0.000000 0.000000 0.000000 -17.393726 21.989103 33.933985 -35.625403 -45.253558 -15.255848 -10.973098 -19.956010 22.762745 0.000000 0.000000 0.000000 7.125000 0.000000 0.000000 18.399118 52.179635 -3.350556
-10.407523 15.488266 1.013988 117.012933 83.471834 131.352813 0.000000 0.000000 0.000000 -12.753351 0.277983 13.016600 1.451488 7.550778 21.388638 -0.429744 11.876243 -6.946383 1.664670 -8.120955 -23.086940 0.000000 0.000000 0.000000 2.420584 -1.147853 -61.204505 -14.275279 -19.133482 72.992931 -0.694010 -1.989627 -16.582179 -0.064709 1.614214 -4.441173 -8.619274 -2.262628 11.389733 -1.488666 -3.880548 3.037727 3.777201 -1.824889 -2.708657 -3.733812 0.775212 -28.445697 -0.479120 3.219633 27.880910 1.092563 0.948984 14.279515 0.000000 0.000000 0.000000 28.153716 -6.084376 -43.594993 90.203874 -59.992181 60.176504 32.220107 -34.477782 19.365220 0.000000 0.000000 0.000000 -7.125000 0.000000 0.000000 2.502337 7.438263 2.157501 0.000000 0.000000 0.000000 -17.648464 22.008593 33.339154 -35.735436 -45.329970 -15.334115 -11.004481 -20.387886 23.168299 0.000000 0.000000 0.000000 7.125000 0.000000 0.000000 18.571611 52.571127 -3.565585
